<svg width="444" height="444" xmlns="http://www.w3.org/2000/svg" xmlns:xlink="http://www.w3.org/1999/xlink" overflow="hidden"><defs><clipPath id="clip0"><rect x="640" y="138" width="444" height="444"/></clipPath></defs><g clip-path="url(#clip0)" transform="translate(-640 -138)"><path d="M658.5 346.125 741.75 346.125 741.75 373.875 658.5 373.875Z" stroke="#000000" stroke-width="6.16667" fill="#FFFFFF"/><path d="M982.25 346.125 1065.5 346.125 1065.5 373.875 982.25 373.875Z" stroke="#000000" stroke-width="6.16667" fill="#FFFFFF"/><path d="M963.75 360C963.75 416.195 918.195 461.75 862 461.75 805.805 461.75 760.25 416.195 760.25 360 760.25 303.805 805.805 258.25 862 258.25 918.195 258.25 963.75 303.805 963.75 360Z" stroke="#000000" stroke-width="6.16667" fill="#FFFFFF"/><path d="M848.125 480.25 875.875 480.25 875.875 563.5 848.125 563.5Z" stroke="#000000" stroke-width="6.16667" fill="#FFFFFF"/><path d="M848.125 156.5 875.875 156.5 875.875 239.75 848.125 239.75Z" stroke="#000000" stroke-width="6.16667" fill="#FFFFFF"/><path d="M786.554 454.598 727.688 513.464 708.066 493.842 766.932 434.976Z" stroke="#000000" stroke-width="6.16661" fill="#FFFFFF"/><path d="M1015.93 226.146 957.066 285.012 937.444 265.39 996.31 206.524Z" stroke="#000000" stroke-width="6.16661" fill="#FFFFFF"/><path d="M787.006 264.935 767.384 284.557 708.518 225.691 728.14 206.069Z" stroke="#000000" stroke-width="6.16661" fill="#FFFFFF"/><path d="M1015.48 494.301 995.853 513.923 936.987 455.057 956.609 435.435Z" stroke="#000000" stroke-width="6.16661" fill="#FFFFFF"/></g></svg>